<svg fill="none" height="70" viewBox="0 0 217 70" width="217" xmlns="http://www.w3.org/2000/svg" xmlns:xlink="http://www.w3.org/1999/xlink"><clipPath id="a"><path d="m.328613.688477h216.344v69h-216.344z"/></clipPath><g clip-path="url(#a)"><g fill="#31374a"><path d="m2.81699 11.0476 9.94421-3.19604v49.10224h-9.94421z"/><path d="m19.5467 23.7568h9.9442v4.152c1.3871-2.8961 5.0705-4.8736 9.6161-4.8736 8.229 0 12.7747 5.2017 12.7747 13.7681v20.1508h-9.9442v-18.9699c0-3.749-2.0432-6.1858-5.989-6.1858-3.749 0-6.4576 2.6993-6.4576 6.5232v18.6418h-9.9442z"/><path d="m58.0767 11.0476 9.6162-3.19604v15.90504h7.3761v8.9601h-7.3761v8.8944c0 4.6769 1.912 6.392 6.1858 6.392h.5249v8.9601s-1.7808 0-2.8961 0c-5.7266 0-13.4401-1.5839-13.4401-13.8337v-32.0819z"/><path d="m79.549 23.7568h9.9442v4.5457c1.5183-3.3554 5.0705-5.2673 9.6161-5.2673.9187 0 2.0437.1312 2.5677.1968v9.2881c-.918-.1968-2.0428-.3281-3.2894-.3281-5.5953 0-8.8944 3.2242-8.8944 8.6321v16.1393h-9.9442z"/><path d="m107.339 23.7575 9.944-3.196v36.3933h-9.944z"/><path d="m123.412 23.7575h9.944v4.3488c.919-2.8305 4.808-4.9393 9.813-4.9393 9.42 0 16.468 7.5729 16.468 17.1891 0 9.5505-7.048 17.189-16.468 17.189-5.005 0-8.894-2.0431-9.813-4.9392v17.0578h-9.944zm17.977 24.8276c4.676 0 8.36-3.6272 8.36-8.229 0-4.6113-3.693-8.229-8.36-8.229-4.809 0-8.632 3.6271-8.632 8.229 0 4.6112 3.823 8.229 8.632 8.229z"/><path d="m164.839 23.7575 9.944-3.196v36.3933h-9.944z"/><path d="m196.583 23.1662c5.07 0 8.96 2.0431 9.879 4.9392v-17.0578l9.878-3.19604v49.10224h-9.878v-4.3488c-.919 2.8305-4.809 4.9393-9.879 4.9393-9.419 0-16.467-7.5729-16.467-17.1891 0-9.5505 7.048-17.189 16.467-17.189zm1.837 25.418c4.742 0 8.632-3.6271 8.632-8.229 0-4.6112-3.89-8.229-8.632-8.229-4.743 0-8.36 3.6272-8.36 8.229 0 4.6113 3.627 8.229 8.36 8.229z"/></g><path d="m112.315 15.9317c3.111 0 5.633-2.5219 5.633-5.6328 0-3.11098-2.522-5.63288-5.633-5.63288s-5.633 2.5219-5.633 5.63288c0 3.1109 2.522 5.6328 5.633 5.6328z" fill="#ad89e8"/><path d="m131.257 14.3378c2.231 0 4.04-1.8085 4.04-4.0395 0-2.23096-1.809-4.03951-4.04-4.03951s-4.039 1.80855-4.039 4.03951c0 2.231 1.808 4.0395 4.039 4.0395z" fill="#cc7bcc"/><path d="m150.199 14.3378c2.231 0 4.039-1.8085 4.039-4.0395 0-2.23096-1.808-4.03951-4.039-4.03951s-4.04 1.80855-4.04 4.03951c0 2.231 1.809 4.0395 4.04 4.0395z" fill="#eba048"/><path d="m173.133 6.31498c-2.203-2.20253-5.764-2.20253-7.967 0-2.202 2.20253-2.202 5.76402 0 7.96662l3.984 3.9833 3.983-3.9833c2.193-2.2026 2.193-5.76409 0-7.96662z" fill="#f47f22"/></g></svg>