<svg fill="none" height="42" viewBox="0 0 138 42" width="138" xmlns="http://www.w3.org/2000/svg"><g fill="#31374a"><path d="m.526657 4.23603 6.365993-2.046v31.43397h-6.365993z"/><path d="m11.2364 12.372h6.366v2.658c.888-1.854 3.246-3.12 6.156-3.12 5.268 0 8.178 3.33 8.178 8.814v12.9h-6.366v-12.144c0-2.4-1.308-3.96-3.834-3.96-2.4 0-4.134 1.728-4.134 4.176v11.934h-6.366z"/><path d="m35.9022 4.23603 6.156-2.046v10.18197h4.722v5.736h-4.722v5.694c0 2.994 1.224 4.092 3.96 4.092h.336v5.736s-1.14 0-1.854 0c-3.666 0-8.604-1.014-8.604-8.856v-20.53797z"/><path d="m49.6481 12.372h6.366v2.91c.972-2.148 3.2461-3.372 6.1561-3.372.588 0 1.3079.084 1.6439.126v5.946c-.588-.126-1.3079-.21-2.1059-.21-3.582 0-5.6941 2.064-5.6941 5.526v10.332h-6.366z"/><path d="m67.4384 12.372 6.366-2.046v23.298h-6.366z"/><path d="m77.7287 12.372h6.366v2.784c.588-1.812 3.078-3.162 6.282-3.162 6.03 0 10.5423 4.848 10.5423 11.004 0 6.114-4.5123 11.004-10.5423 11.004-3.204 0-5.694-1.308-6.282-3.162v10.92h-6.366zm11.5079 15.894c2.994 0 5.3521-2.322 5.3521-5.268 0-2.952-2.3641-5.268-5.3521-5.268-3.078 0-5.5259 2.322-5.5259 5.268 0 2.952 2.4479 5.268 5.5259 5.268z"/><path d="m104.248 12.372 6.366-2.046v23.298h-6.366z"/><path d="m124.571 11.994c3.246 0 5.736 1.308 6.324 3.162v-10.91997l6.324-2.046v31.43397h-6.324v-2.784c-.588 1.812-3.078 3.162-6.324 3.162-6.03 0-10.542-4.848-10.542-11.004 0-6.114 4.512-11.004 10.542-11.004zm1.176 16.272c3.036 0 5.526-2.322 5.526-5.268 0-2.952-2.49-5.268-5.526-5.268s-5.352 2.322-5.352 5.268c0 2.952 2.322 5.268 5.352 5.268z"/></g><path d="m70.6249 7.36206c1.9915 0 3.6059-1.61447 3.6059-3.60601 0-1.99153-1.6144-3.605995-3.6059-3.605995-1.9916 0-3.6061 1.614465-3.6061 3.605995 0 1.99154 1.6145 3.60601 3.6061 3.60601z" fill="#a279e5"/><path d="m82.7509 6.34204c1.4283 0 2.586-1.15779 2.586-2.586s-1.1577-2.586-2.586-2.586c-1.4282 0-2.586 1.15779-2.586 2.586s1.1578 2.586 2.586 2.586z" fill="#cc7bcc"/><path d="m94.8763 6.34204c1.4282 0 2.586-1.15779 2.586-2.586s-1.1578-2.586-2.586-2.586-2.586 1.15779-2.586 2.586 1.1578 2.586 2.586 2.586z" fill="#eba048"/><path d="m109.558 1.20603c-1.41-1.410001-3.69-1.410001-5.1 0-1.41 1.41-1.41 3.69 0 5.1l2.55 2.55 2.55-2.55c1.404-1.41 1.404-3.69 0-5.1z" fill="#f47f22"/></svg>