<svg fill="none" height="56" viewBox="0 0 50 56" width="50" xmlns="http://www.w3.org/2000/svg"><path d="m42.8125 30.0187c-3.7439-3.7439-9.8136-3.7439-13.5529 0-3.7439 3.7439-3.7439 9.8136 0 13.5529l6.7787 6.7787 6.7787-6.7787c3.7348-3.7438 3.7348-9.8135-.0045-13.5529z" fill="#f47f22"/><path d="m13.5116 22.9735c5.2926 0 9.5832-4.2905 9.5832-9.5832 0-5.29265-4.2906-9.5832-9.5832-9.5832-5.2927 0-9.58326 4.29055-9.58326 9.5832 0 5.2927 4.29056 9.5832 9.58326 9.5832z" fill="#a279e5"/><path d="m13.5115 43.969c3.7961 0 6.8735-3.0774 6.8735-6.8735 0-3.7962-3.0774-6.8736-6.8735-6.8736-3.79617 0-6.87356 3.0774-6.87356 6.8736 0 3.7961 3.07739 6.8735 6.87356 6.8735z" fill="#cc7bcc"/><path d="m36.0331 20.2639c3.7962 0 6.8735-3.0774 6.8735-6.8736 0-3.79615-3.0773-6.87355-6.8735-6.87355s-6.8736 3.0774-6.8736 6.87355c0 3.7962 3.0774 6.8736 6.8736 6.8736z" fill="#eba048"/></svg>