<svg fill="none" height="100" viewBox="0 0 100 100" width="100" xmlns="http://www.w3.org/2000/svg"><path d="m59.7992 35.9188c2.06 0 4.12-.78 5.68-2.35 3.13-3.13 3.13-8.23 0-11.37-3.13-3.13-8.23-3.13-11.37 0-3.13 3.13-3.13 8.23 0 11.37 1.57 1.57 3.63 2.35 5.69 2.35zm-3.48-11.51c.96-.96 2.22-1.44 3.48-1.44s2.52.48 3.48 1.44c1.92 1.92 1.92 5.04 0 6.96s-5.04 1.92-6.96 0c-1.92-1.93-1.92-5.05 0-6.96z" fill="#31374a"/><path d="m70.6802 15.2087c-6.2-5.32996-15.57-5.32996-21.77 0h-19.55c-7.69 0-13.95 6.26-13.95 13.95v45.68c0 7.69 6.26 13.95 13.95 13.95h41.28c7.69 0 13.9499-6.26 13.9499-13.95v-45.68c.0101-7.68-6.2299-13.93-13.9099-13.95zm-1.73 2.61c.03.03.06.06.09.09 2.74 2.55 4.29 6 4.36 9.73.01.47-.01.93-.04 1.38v.02c-.04.45-.1.9-.18 1.34 0 .01-.01.02-.01.04-.08.43-.18.86-.3 1.29-.01.02-.02.04-.02.06-.12.41-.26.82-.42 1.22-.01.03-.03.07-.05.1-.16.38-.33.76-.52 1.12-.04.07-.08.14-.12.21-.18.32-.36.65-.57.96-.09.14-.2.27-.3.4-.17.24-.33.47-.52.7-.29.36-.6.7-.93 1.03l-8.76 8.76c-.46.46-1.25.46-1.71 0l-8.76-8.76c-.33-.33-.64-.68-.93-1.03-.11-.13-.2-.27-.3-.41-.17-.23-.35-.45-.51-.69-.15-.23-.28-.47-.42-.71-.09-.15-.19-.3-.27-.46-.15-.29-.29-.6-.42-.9-.05-.11-.11-.21-.15-.32-.13-.33-.25-.68-.35-1.02-.03-.09-.06-.17-.09-.26-.1-.36-.18-.72-.26-1.09-.02-.08-.04-.16-.05-.23-.07-.38-.11-.76-.15-1.14-.01-.07-.02-.14-.03-.22-.03-.39-.04-.78-.04-1.18 0-.07-.01-.14-.01-.21.01-.43.04-.87.09-1.29 0-.03 0-.06.01-.09.38-3.19 1.86-6.11 4.26-8.34.03-.03.06-.06.09-.09 2.57-2.34 5.86-3.51 9.15-3.51 3.28-.01 6.57 1.16 9.14 3.5zm12.5299 57.02c0 5.97-4.8599 10.83-10.8299 10.83h-41.29c-5.97 0-10.83-4.86-10.83-10.83v-45.68c0-5.97 4.86-10.83 10.83-10.83h16.71c-.2.29-.39.59-.57.89-.14.23-.27.46-.39.69-.13.25-.27.5-.39.75-.1.21-.19.41-.28.62-.11.26-.22.53-.32.8-.07.19-.15.38-.21.57-.14.43-.26.87-.37 1.31-.04.18-.08.37-.11.56-.06.31-.12.63-.17.94-.03.2-.05.39-.08.59-.04.37-.07.75-.08 1.13 0 .11-.02.21-.02.32v.07.02c0 .1.01.2.01.3 0 .47.01.93.04 1.39.01.12.03.24.05.37.04.44.09.87.17 1.3.03.14.07.28.1.42.09.4.17.81.28 1.2.05.16.11.31.16.47.12.37.24.74.38 1.1.08.19.17.37.26.56.14.32.28.64.44.95.12.24.27.46.41.69.15.25.28.5.44.74.21.31.44.61.67.91.11.15.21.3.33.45.36.44.74.86 1.15 1.27l6.91 6.91h-17.89c-4.14 0-7.52 3.37-7.52 7.52s3.37 7.52 7.52 7.52h27.97c2.42 0 4.4 1.97 4.4 4.4s-1.97 4.4-4.4 4.4h-26.54c-.29-1.39-.97-2.7-2.04-3.78-2.94-2.94-7.73-2.94-10.68 0-2.94 2.94-2.94 7.73 0 10.68 1.47 1.47 3.4 2.21 5.34 2.21 1.93 0 3.87-.74 5.34-2.21 1.07-1.07 1.75-2.39 2.04-3.78h26.55c4.14 0 7.52-3.37 7.52-7.52 0-4.14-3.37-7.52-7.52-7.52h-27.98c-2.42 0-4.4-1.97-4.4-4.4s1.97-4.4 4.4-4.4h22.8c1.16 0 2.24-.45 3.06-1.27l8.76-8.76c.41-.41.79-.83 1.15-1.27.18-.22.34-.46.51-.69.16-.22.34-.44.49-.67.21-.31.39-.64.57-.97.09-.16.19-.31.28-.47.19-.37.36-.75.52-1.13.06-.13.12-.25.18-.38.16-.4.3-.82.43-1.24.04-.11.08-.22.11-.34.12-.43.22-.86.31-1.3.02-.11.06-.22.08-.33.08-.45.13-.9.18-1.36.01-.1.03-.21.04-.31.04-.46.04-.94.04-1.41 0-.1.01-.19.01-.28 0-.01 0-.01 0-.02 0-.02 0-.05 0-.07 0-.09-.02-.18-.02-.27-.02-.39-.04-.78-.08-1.16-.02-.18-.04-.36-.07-.55-.05-.37-.12-.73-.19-1.09-.04-.2-.08-.39-.13-.59-.09-.36-.19-.72-.3-1.07-.06-.2-.13-.39-.2-.58-.1-.28-.21-.56-.33-.84-.07-.17-.14-.35-.22-.52-.18-.39-.38-.77-.59-1.14-.1-.19-.22-.37-.33-.55-.07-.11-.12-.22-.19-.32 4.42 1.37 7.63 5.49 7.63 10.35v45.7zm-47.3099.29c-1.73 1.73-4.54 1.72-6.26 0-1.73-1.73-1.73-4.54 0-6.26.86-.86 2-1.29 3.13-1.29s2.27.43 3.13 1.29c1.73 1.73 1.73 4.54 0 6.26z" fill="#31374a"/><path d="m68.9592 17.7987c-.31-.28-.63-.54-.95-.79-.3-.23-.61-.43-.92-.63-.02-.02-.05-.03-.07-.05-.34-.21-.68-.4-1.03-.58-3.88-1.94-8.56-1.91-12.41.03-.01 0-.01.01-.02.01-.33.17-.66.35-.98.55-.11.07-.21.14-.31.21-.22.15-.45.3-.67.46-.32.25-.64.51-.95.78-.32.29-.62.6-.9.91-.11.13-.22.26-.33.38-.16.19-.32.38-.47.58-.13.17-.25.34-.37.52-.11.16-.22.32-.32.49-.12.2-.25.4-.36.61-.08.14-.15.28-.22.43-.12.23-.23.46-.34.69-.04.09-.07.18-.11.27-.19.45-.35.91-.48 1.38-.06.19-.12.38-.16.58-.05.19-.08.37-.12.56-.05.24-.09.48-.13.73-.02.16-.04.33-.06.49-.03.29-.05.58-.06.88-.01.13-.02.27-.02.4 0 .35.01.69.03 1.03.02.3.05.59.09.89.02.17.04.34.06.5.05.32.12.64.2.96.01.05.02.11.04.16.28 1.09.69 2.15 1.25 3.18.01.02.01.04.02.05.61 1.11 1.37 2.14 2.29 3.06l8.71 8.71c.51.51 1.33.51 1.84 0l8.71-8.71c2.66-2.66 4.07-6.19 3.98-9.95-.1-3.76-1.68-7.23-4.46-9.77zm-3.58 15.64c-1.54 1.54-3.56 2.31-5.58 2.31s-4.04-.77-5.58-2.31c-1.49-1.49-2.31-3.47-2.31-5.58s.82-4.09 2.31-5.58 3.47-2.31 5.58-2.31 4.09.82 5.58 2.31c3.07 3.07 3.07 8.08 0 11.16z" fill="#a279e5"/></svg>