<svg fill="none" height="100" viewBox="0 0 100 100" width="100" xmlns="http://www.w3.org/2000/svg"><path d="m49.2347 51.335c-2.79 0-5.06-2.27-5.06-5.06 0-.86-.7-1.56-1.56-1.56s-1.56.7-1.56 1.56c0 4.51 3.67 8.18 8.18 8.18.86 0 1.56-.7 1.56-1.56s-.7-1.56-1.56-1.56z" fill="#31374a"/><path d="m86.7848 35.045c0-3.02-2.46-5.48-5.48-5.48h-8.6c-.8-10.43-9.52-18.68-20.16-18.68s-19.35 8.25-20.16 18.68h-8.6c-3.02 0-5.48 2.46-5.48 5.48s2.46 5.48 5.48 5.48h7.6c-1.6 3.65-4.25 11.32-3.8 20.94h-8.39c-3.3 0-5.98 2.68-5.98 5.98v15.69c0 3.3 2.68 5.98 5.98 5.98h27.13 30.82c2.77 0 5.02-2.25 5.02-5.02v-4.59c0-6.18-5.03-11.2-11.2-11.2h-10.23v-2.56h15.02c.79 0 1.46-.6 1.55-1.39 1.23-10.95-1.83-19.81-3.59-23.83h7.59c3.02 0 5.48-2.46 5.48-5.48zm-34.24-21.04c8.91 0 16.24 6.85 17.04 15.56h-34.07c.79-8.71 8.12-15.56 17.03-15.56zm-31.11 21.04c0-1.3 1.06-2.36 2.36-2.36h57.5c1.3 0 2.36 1.06 2.36 2.36s-1.06 2.36-2.36 2.36h-57.5c-1.3 0-2.36-1.06-2.36-2.36zm36.18 33.98c-1.59.96-3.46 1.44-5.3 1.39v-2.97c0-1.86-.86-3.53-2.2-4.63.8.1 1.61.16 2.44.16 1.75 0 3.44-.25 5.07-.67v6.72zm-5.07-9.17c-9.44 0-17.12-7.68-17.12-17.12v-2.21h34.23v2.21c.01 9.44-7.67 17.12-17.11 17.12zm-19.91-13.64c1.17 6.72 5.66 12.31 11.73 15.01v.23h-13.65c-.31-6.08.75-11.39 1.92-15.24zm-16.3 36.92v-15.7c0-1.58 1.28-2.86 2.86-2.86h27.13c1.58 0 2.86 1.28 2.86 2.86v15.69c0 1.58-1.28 2.86-2.86 2.86h-27.13c-1.57.01-2.86-1.28-2.86-2.85zm54.81-11.95c4.28.24 7.91 3.86 7.91 8.32v4.59c0 1.05-.85 1.9-1.9 1.9h-25.57c.46-.85.73-1.82.73-2.86v-9.6c.09 0 .19.01.28.01 2.67 0 5.23-.82 7.41-2.36zm3.19-8.57h-13.6v-1.39c6.07-2.7 10.56-8.29 11.73-15.01 1.25 4.09 2.38 9.83 1.87 16.4z" fill="#31374a"/><path d="m52.5456 14.005c8.91 0 16.24 6.85 17.04 15.56h-34.07c.79-8.71 8.12-15.56 17.03-15.56z" fill="#a279e5"/><path d="m21.4355 35.045c0-1.3 1.06-2.36 2.36-2.36h57.5001c1.3 0 2.3599 1.06 2.3599 2.36s-1.0599 2.36-2.3599 2.36h-57.5001c-1.3 0-2.36-1.06-2.36-2.36z" fill="#a279e5"/><g fill="#31374a"><path d="m33.1844 68.905c-1.66-1.66-3.86-2.57-6.2-2.57-2.33 0-4.53.91-6.18 2.56-1.66 1.65-2.57 3.85-2.57 6.2 0 3.64 2.3 6.94 5.71 8.21.97.36 1.99.55 3.04.55 2.36 0 4.56-.91 6.2-2.57 1.66-1.66 2.57-3.85 2.57-6.19 0-2.3-.89-4.47-2.49-6.12-.01 0-.07-.07-.08-.07zm-2.21 10.18c-1.06 1.06-2.47 1.65-3.99 1.65-.68 0-1.33-.12-1.95-.35-2.2-.82-3.68-2.94-3.68-5.29 0-1.52.59-2.93 1.65-3.99 1.07-1.07 2.48-1.65 3.98-1.65 1.51 0 2.93.59 4.04 1.7 1.03 1.06 1.61 2.46 1.61 3.94 0 1.51-.59 2.92-1.66 3.99z"/><path d="m46.5951 69.565c-.15-.79-.53-1.5-1.09-2.07-.74-.74-1.77-1.16-2.82-1.16s-2.08.42-2.82 1.16c-.56.56-.94 1.28-1.09 2.04-.05.24-.07.49-.07.78 0 2.2 1.79 3.98 3.98 3.98 1.05 0 2.08-.42 2.83-1.18.74-.76 1.15-1.76 1.15-2.81 0-.28-.03-.53-.07-.74zm-3.3 1.37c-.16.16-.38.25-.61.25-.48 0-.86-.39-.86-.86 0-.05 0-.1.01-.16.03-.17.12-.33.24-.45.16-.16.38-.25.61-.25s.45.09.61.25c.12.12.2.28.24.48.01.04.01.09.01.13 0 .29-.14.5-.25.61z"/></g></svg>