<svg fill="none" height="100" viewBox="0 0 100 100" width="100" xmlns="http://www.w3.org/2000/svg"><g fill="#31374a"><path d="m82.0175 52.73c-.2-.19-.42-.35-.63-.52v-22.89c0-7.76-6.31-14.07-14.07-14.07h-3.86v-2.76c0-.86-.7-1.56-1.56-1.56s-1.56.7-1.56 1.56v2.76h-27.1v-2.76c0-.86-.7-1.56-1.56-1.56s-1.56.7-1.56 1.56v2.76h-3.86c-7.76 0-14.07 6.31-14.07 14.07v31.77c0 7.76 6.31 14.07 14.07 14.07h28.71c.72 1.16 1.56 2.25 2.55 3.24l9.35 9.35c.88.88 2.04 1.32 3.2 1.32s2.32-.44 3.2-1.32l9.35-9.35c3.46-3.46 5.31-8.07 5.19-12.96-.11-4.89-2.17-9.41-5.79-12.71zm-55.76-34.36h3.86v2.76c0 .86.7 1.56 1.56 1.56s1.56-.7 1.56-1.56v-2.76h27.08v2.76c0 .86.7 1.56 1.56 1.56s1.56-.7 1.56-1.56v-2.76h3.86c6.04 0 10.95 4.91 10.95 10.95v1.78h-62.94v-1.78c0-6.03 4.91-10.95 10.95-10.95zm0 53.67c-6.04 0-10.95-4.91-10.95-10.95v-26.87h62.95v15.9c-.03-.02-.06-.03-.1-.04-.3-.15-.61-.29-.91-.42-.12-.05-.24-.1-.36-.15-.36-.15-.72-.28-1.09-.41-.04-.01-.07-.02-.11-.04-4.6-1.51-9.71-1.12-14.03 1.18-.14.07-.28.15-.42.23-.25.14-.51.29-.75.45-.23.14-.45.3-.67.45-.18.12-.35.24-.53.37-.4.31-.8.63-1.18.97-.4.37-.78.75-1.14 1.15-.13.14-.25.28-.37.42-.23.26-.45.53-.65.81-.13.17-.27.35-.39.53-.2.28-.38.57-.56.86-.2.32-.39.65-.57.98-.13.24-.26.48-.38.72-.12.25-.23.5-.33.75-.1.24-.19.48-.28.72s-.18.48-.26.72c-.15.46-.28.92-.39 1.38-.03.14-.06.29-.09.44-.08.4-.16.8-.21 1.21-.02.15-.04.3-.06.45-.06.5-.09.99-.11 1.49 0 .04-.01.07-.01.1v.03c-.01.54 0 1.08.04 1.62.01.18.04.37.05.55.03.31.07.62.12.93.04.27.09.55.14.82.03.14.06.27.09.41.17.76.39 1.51.66 2.24zm54.16 4.16-9.35 9.35c-.55.55-1.43.55-1.98 0l-9.35-9.35c-.99-.99-1.81-2.1-2.46-3.29-.01-.02-.01-.04-.02-.06-.6-1.1-1.04-2.24-1.34-3.41-.01-.06-.03-.12-.04-.17-.08-.34-.16-.68-.21-1.03-.03-.18-.05-.36-.07-.54-.04-.32-.08-.64-.1-.96-.02-.37-.03-.73-.03-1.1 0-.14.01-.28.02-.43.01-.32.04-.63.07-.94.02-.18.04-.35.07-.53.04-.26.09-.52.14-.78.04-.2.08-.4.13-.6.05-.21.11-.41.17-.62.15-.5.32-1 .52-1.48.04-.1.07-.19.11-.29.11-.25.24-.49.36-.74.08-.15.15-.31.24-.46.12-.22.25-.44.39-.65.11-.18.22-.35.34-.52.13-.19.26-.37.4-.55.16-.21.33-.42.5-.62.12-.14.23-.28.35-.41.31-.34.63-.67.97-.98.33-.3.67-.58 1.02-.84.23-.18.48-.33.72-.49.11-.07.22-.15.33-.23.34-.21.7-.41 1.05-.59.01 0 .01-.01.02-.01 4.13-2.09 9.16-2.12 13.33-.04.38.19.75.39 1.11.62.03.02.05.04.08.05.34.21.67.44.99.68h.01c.35.27.7.55 1.03.85 2.99 2.73 4.69 6.45 4.78 10.48.07 4.03-1.45 7.82-4.3 10.68z"/><path d="m70.0677 57.38c-2.26 0-4.39.88-5.99 2.48s-2.48 3.73-2.48 5.99.88 4.39 2.48 5.99c1.65 1.65 3.82 2.48 5.99 2.48s4.34-.83 5.99-2.48c3.3-3.31 3.3-8.68 0-11.99-1.6-1.59-3.73-2.47-5.99-2.47zm3.79 12.26c-2.09 2.09-5.49 2.09-7.58 0-1.01-1.01-1.57-2.36-1.57-3.79s.56-2.78 1.57-3.79 2.36-1.57 3.79-1.57 2.78.56 3.79 1.57c2.09 2.09 2.09 5.49 0 7.58z"/><path d="m26.5678 40.1c-1.55 0-2.81 1.26-2.81 2.81s1.26 2.81 2.81 2.81 2.81-1.26 2.81-2.81-1.26-2.81-2.81-2.81z"/><path d="m46.7866 40.1c-1.55 0-2.81 1.26-2.81 2.81s1.26 2.81 2.81 2.81 2.81-1.26 2.81-2.81c-.01-1.55-1.26-2.81-2.81-2.81z"/><path d="m26.5678 56.13c-1.55 0-2.81 1.26-2.81 2.81s1.26 2.81 2.81 2.81 2.81-1.26 2.81-2.81-1.26-2.81-2.81-2.81z"/><path d="m46.7866 56.13c-1.55 0-2.81 1.26-2.81 2.81s1.26 2.81 2.81 2.81 2.81-1.26 2.81-2.81-1.26-2.81-2.81-2.81z"/><path d="m66.9975 45.72c1.55 0 2.81-1.26 2.81-2.81s-1.26-2.81-2.81-2.81-2.81 1.26-2.81 2.81 1.26 2.81 2.81 2.81z"/></g><path d="m79.9084 55.05c-.33-.3-.67-.58-1.03-.85 0 0 0 0-.01 0-.32-.24-.65-.47-.99-.68-.03-.02-.05-.04-.08-.05-.36-.22-.73-.43-1.11-.62-4.17-2.09-9.2-2.05-13.33.04-.01 0-.01.01-.02.01-.36.18-.71.38-1.05.59-.11.07-.22.15-.33.23-.24.16-.48.32-.72.49-.35.26-.69.54-1.02.84-.34.31-.66.64-.97.98-.12.13-.23.27-.35.41-.17.2-.34.41-.5.62-.14.18-.27.37-.4.55-.12.17-.23.35-.34.52-.13.21-.27.43-.39.65-.08.15-.16.31-.24.46-.12.25-.25.49-.36.74-.04.1-.08.19-.12.29-.2.49-.37.98-.52 1.49-.06.21-.12.41-.17.62-.05.2-.09.4-.13.6-.05.26-.1.52-.14.78-.03.18-.05.35-.07.53-.03.31-.06.63-.07.94-.01.14-.02.28-.02.43-.01.37.01.74.03 1.1.02.32.05.64.1.96.02.18.04.36.07.54.06.34.13.69.21 1.03.01.06.03.12.04.17.3 1.17.74 2.31 1.34 3.41.01.02.01.04.02.06.66 1.19 1.47 2.3 2.46 3.29l9.35 9.36c.55.55 1.43.55 1.98 0l9.35-9.36c2.85-2.86 4.37-6.65 4.28-10.69-.06-4.02-1.75-7.75-4.75-10.48zm-3.84 16.8c-1.65 1.65-3.82 2.48-5.99 2.48s-4.34-.83-5.99-2.48c-1.6-1.6-2.48-3.73-2.48-5.99s.88-4.39 2.48-5.99 3.73-2.48 5.99-2.48 4.39.88 5.99 2.48c3.3 3.29 3.3 8.67 0 11.98z" fill="#a279e5"/></svg>