<svg fill="none" height="100" viewBox="0 0 100 100" width="100" xmlns="http://www.w3.org/2000/svg"><path d="m47.4993 55.315c.84 0 1.52-.68 1.52-1.52s-.68-1.52-1.52-1.52c-2.72 0-4.93-2.21-4.93-4.93 0-.84-.68-1.52-1.52-1.52s-1.52.68-1.52 1.52c-.01 4.39 3.57 7.97 7.97 7.97z" fill="#31374a"/><path d="m78.42 70.265c-.01-.03-.01-.06-.01-.09-1.34-5.42-6.12-11.41-13.7-13.17 3.11-3.49 5.02-8.07 5.02-13.1v-2.16h5.86c2.95 0 5.34-2.4 5.34-5.34 0-2.95-2.4-5.34-5.34-5.34h-5.94c-.71-8.82-7.42-15.96-16.04-17.33.46-.26.78-.75.78-1.32 0-.84-.68-1.52-1.52-1.52h-4.6c-.84 0-1.52.68-1.52 1.52 0 .48.23.9.57 1.18-9.56 1.04-17.03 9.15-17.05 18.97v.02 2.55 5.09 3.68c0 5.04 1.92 9.63 5.04 13.12-7.21 1.74-12.23 7.48-13.65 12.91-.03.11-.04.22-.05.33-4.06 2.01-6.86 6.17-6.86 11v3.11c0 2.61 2.12 4.73 4.73 4.73h5.82 7.77 33.83 7.77 5.85c2.61 0 4.73-2.12 4.73-4.73v-3.13c0-4.81-2.79-8.97-6.83-10.98zm-3.54-1.13c-.62-.1-1.25-.16-1.9-.16h-2.63l-.46-1.45c-.2-.63-.79-1.06-1.45-1.06h-7.77c-.49 0-.94.23-1.23.62s-.37.9-.22 1.36l.17.53h-1.4v-7.06c1.39-.62 2.68-1.39 3.88-2.3 6.7.65 11.2 5.06 13.01 9.52zm-20.49.67c-.11.06-.22.12-.33.17-.31.15-.63.27-.95.38-.09.03-.18.07-.27.09-.36.11-.72.2-1.08.26-.06.01-.12.03-.19.04-.39.06-.79.1-1.19.12-.04 0-.08.01-.11.01-.41.01-.83-.01-1.24-.05-.03 0-.06 0-.08-.01-.41-.05-.81-.12-1.21-.22-.04-.01-.07-.01-.11-.02-.37-.1-.74-.23-1.1-.37-.06-.02-.12-.04-.17-.06-.38-.16-.75-.35-1.11-.56-.03-.02-.06-.03-.09-.05l-.08-.05v-6.51c1.58.41 3.23.65 4.94.65s3.36-.24 4.94-.65v6.51c-.2.11-.38.22-.57.32zm23.5-33.41c0 1.27-1.03 2.3-2.3 2.3h-42.27v-3.57-1.01h34.89c.07 0 .13-.01.2-.02h7.18c1.27 0 2.3 1.03 2.3 2.3zm-28.48-19.89h1.19c8.35 0 15.24 6.4 16.01 14.55h-33.22c.78-8.16 7.67-14.55 16.02-14.55zm-16.09 25.23h33.37v2.16c0 9.2-7.48 16.68-16.68 16.68s-16.68-7.48-16.68-16.68v-2.16zm4.83 17.88c1.2.9 2.49 1.68 3.88 2.3v7.06h-1.44l.17-.52c.15-.46.06-.97-.22-1.36-.29-.39-.74-.62-1.23-.62h-7.77c-.66 0-1.25.43-1.45 1.06l-.46 1.45h-2.6c-.64 0-1.27.06-1.89.16 1.85-4.52 6.57-8.87 13.01-9.53zm-20.35 24.76v-3.13c0-5.09 4.14-9.23 9.23-9.23h1.63l-4.47 14.05h-4.71c-.93 0-1.68-.76-1.68-1.69zm14.85-14.87h4.58l-5.27 16.55h-4.57zm2.51 16.56 4.47-14.04h3.76l.18.11c.48.29.98.54 1.48.76.03.01.06.03.09.04.46.19.93.35 1.4.49l.33.09c.4.1.8.18 1.21.25.19.03.38.06.57.08.34.04.68.06 1.02.07.12 0 .24.02.37.02 1.73 0 3.46-.37 5.07-1.09.01-.01.03-.01.04-.02.25-.11.5-.23.75-.36.02-.01.03-.02.04-.02.25-.13.49-.27.73-.42h3.69l4.47 14.04zm32.86 0-5.27-16.55h4.58l5.27 16.55zm14.19-1.69c0 .93-.76 1.69-1.69 1.69h-4.73l-4.47-14.04h1.66c5.09 0 9.23 4.14 9.23 9.23z" fill="#31374a"/><g fill="#a279e5"><path d="m77.8903 36.395c0 1.27-1.03 2.3-2.3 2.3h-42.27v-3.57-1.01h34.89c.07 0 .13-.01.2-.02h7.18c1.27 0 2.3 1.03 2.3 2.3z"/><path d="m49.4106 16.505h1.19c8.35 0 15.24 6.4 16.01 14.55h-33.22c.78-8.16 7.67-14.55 16.02-14.55z"/></g></svg>