<svg fill="none" height="100" viewBox="0 0 100 100" width="100" xmlns="http://www.w3.org/2000/svg"><g fill="#31374a"><path d="m50.0044 31.2562c1.75 0 3.5-.67 4.84-2 1.29-1.29 2-3.01 2-4.84s-.71-3.54-2-4.84c-2.67-2.67-7-2.67-9.67 0s-2.67 7.01 0 9.67c1.32 1.34 3.07 2.01 4.83 2.01zm-2.64-9.47c.73-.73 1.68-1.09 2.63-1.09s1.91.36 2.63 1.09c.7.7 1.09 1.64 1.09 2.63s-.39 1.93-1.09 2.63c-1.45 1.45-3.81 1.45-5.26 0s-1.45-3.81 0-5.26z"/><path d="m67.7044 17.3163h-5.73c-.7-1.17-1.57-2.24-2.61-3.19-5.25-4.79005-13.48-4.79005-18.73 0-1.04.95-1.91 2.02-2.61 3.19h-5.73c-6.65 0-12.06 5.41-12.06 12.06v48.0299c0 6.6501 5.41 12.0601 12.06 12.0601h35.41c6.65 0 12.06-5.41 12.06-12.0601v-48.0299c.01-6.65-5.41-12.06-12.06-12.06zm-24.97-.89c2.04-1.86 4.65-2.79 7.26-2.79s5.23.93 7.26 2.79c.99.9 1.77 1.95 2.36 3.1.01.01.01.03.02.05.63 1.25.99 2.57 1.11 3.9.01.12.02.24.03.36.01.18.02.37.02.55 0 .16-.01.33-.01.49-.01.28-.03.57-.07.85-.02.15-.03.31-.06.46-.03.19-.07.38-.11.57-.03.12-.05.23-.08.34-.05.2-.1.39-.16.58-.03.09-.06.19-.1.28-.22.62-.49 1.23-.82 1.8-.08.13-.15.27-.24.4-.08.13-.17.26-.26.39-.11.16-.23.32-.35.48-.08.1-.15.19-.23.29-.21.25-.43.5-.67.74l-7.14 7.14c-.18.18-.38.2-.49.2s-.32-.03-.49-.21l-7.14-7.14c-.24-.24-.45-.48-.67-.74-.08-.1-.16-.2-.23-.3-.12-.15-.24-.31-.35-.47-.09-.13-.18-.26-.26-.39s-.15-.26-.23-.38c-.34-.59-.61-1.2-.83-1.83-.03-.09-.06-.17-.09-.26-.06-.2-.12-.4-.17-.6-.03-.11-.05-.22-.08-.32-.04-.19-.08-.39-.12-.58-.02-.14-.04-.27-.05-.41-.04-.3-.06-.61-.07-.91-.01-.16-.01-.31-.01-.47 0-.19.01-.37.02-.56.01-.12.02-.23.03-.35.12-1.33.48-2.65 1.11-3.9.01-.01.01-.03.02-.04.57-1.15 1.35-2.21 2.34-3.11zm33.92 60.9799c0 4.9301-4.01 8.9401-8.94 8.9401h-35.42c-4.93 0-8.94-4.01-8.94-8.9401v-48.0299c0-4.93 4.01-8.94 8.94-8.94h4.38c-.15.51-.27 1.03-.36 1.56-.02.12-.05.24-.06.36-.03.21-.06.42-.08.63-.03.27-.05.53-.06.8 0 .1-.02.2-.02.31 0 .07.01.14.01.21 0 .33.01.65.03.98.01.16.02.32.04.48.03.28.06.55.11.83.04.25.09.5.14.75.04.21.09.41.14.61.05.21.11.41.18.62.05.17.12.35.18.52.12.32.24.64.38.95.08.18.16.35.24.52.09.18.18.36.27.53.14.25.29.5.44.75.09.14.18.28.28.42.18.27.37.52.57.78.08.1.15.19.23.29.27.32.54.63.84.93l7.14 7.14c.72.72 1.68 1.12 2.7 1.12s1.98-.4 2.7-1.12l7.14-7.14c.3-.3.57-.61.84-.93.08-.1.16-.19.24-.29.2-.25.39-.51.57-.77.1-.14.2-.29.29-.44.15-.24.3-.49.43-.74.1-.18.19-.35.28-.53.09-.17.16-.35.24-.52.14-.31.26-.62.38-.94.06-.18.13-.35.18-.53.06-.2.12-.4.17-.61.06-.21.1-.42.15-.63.05-.24.1-.47.13-.71.05-.28.08-.57.11-.86.01-.15.03-.31.04-.46.02-.34.03-.67.03-1.01 0-.06.01-.12.01-.18 0-.09-.02-.19-.02-.28-.01-.28-.03-.55-.06-.83-.02-.21-.05-.41-.08-.62-.02-.13-.04-.26-.07-.39-.09-.52-.21-1.04-.36-1.54h4.38c4.93 0 8.94 4.01 8.94 8.94v48.0099z"/><path d="m33.4842 46.1362c-2.84 0-5.16 2.31-5.16 5.16s2.31 5.16 5.16 5.16 5.16-2.31 5.16-5.16-2.31-5.16-5.16-5.16zm0 7.19c-1.12 0-2.04-.92-2.04-2.04s.91-2.04 2.04-2.04c1.12 0 2.04.91 2.04 2.04s-.91 2.04-2.04 2.04z"/><path d="m66.5134 46.1362h-20.33c-2.84 0-5.16 2.31-5.16 5.16s2.31 5.16 5.16 5.16h20.32c2.84 0 5.16-2.31 5.16-5.16s-2.31-5.16-5.15-5.16zm0 7.19h-20.33c-1.12 0-2.04-.92-2.04-2.04s.92-2.04 2.04-2.04h20.32c1.12 0 2.04.91 2.04 2.04s-.91 2.04-2.03 2.04z"/><path d="m33.4842 59.0463c-2.84 0-5.16 2.31-5.16 5.16s2.31 5.16 5.16 5.16 5.16-2.31 5.16-5.16-2.31-5.16-5.16-5.16zm0 7.2c-1.12 0-2.04-.92-2.04-2.04s.91-2.04 2.04-2.04c1.12 0 2.04.91 2.04 2.04s-.91 2.04-2.04 2.04z"/><path d="m66.5134 59.0463h-20.33c-2.84 0-5.16 2.31-5.16 5.16s2.31 5.16 5.16 5.16h20.32c2.84 0 5.16-2.31 5.16-5.16s-2.31-5.16-5.15-5.16zm0 7.2h-20.33c-1.12 0-2.04-.92-2.04-2.04s.92-2.04 2.04-2.04h20.32c1.12 0 2.04.91 2.04 2.04s-.91 2.04-2.03 2.04z"/><path d="m33.4842 71.9562c-2.84 0-5.16 2.31-5.16 5.16s2.31 5.16 5.16 5.16 5.16-2.31 5.16-5.16-2.31-5.16-5.16-5.16zm0 7.2c-1.12 0-2.04-.91-2.04-2.04 0-1.12.91-2.04 2.04-2.04 1.12 0 2.04.92 2.04 2.04 0 1.13-.91 2.04-2.04 2.04z"/><path d="m66.5134 71.9562h-20.33c-2.84 0-5.16 2.31-5.16 5.16s2.31 5.16 5.16 5.16h20.32c2.84 0 5.16-2.31 5.16-5.16s-2.31-5.16-5.15-5.16zm0 7.2h-20.33c-1.12 0-2.04-.91-2.04-2.04 0-1.12.92-2.04 2.04-2.04h20.32c1.12 0 2.04.92 2.04 2.04.01 1.13-.91 2.04-2.03 2.04z"/></g><path d="m57.3045 16.4262c-.25-.22-.5-.43-.76-.63-.24-.18-.49-.35-.74-.5-.02-.01-.04-.03-.06-.04-.27-.17-.54-.32-.82-.46-3.1-1.55-6.83-1.52-9.89.03-.01 0-.01.01-.02.01-.27.14-.53.28-.78.44-.08.05-.16.11-.25.17-.18.12-.36.24-.53.37-.26.2-.51.4-.76.63s-.49.48-.72.73c-.09.1-.17.2-.26.31-.13.15-.25.3-.37.46-.1.13-.2.27-.29.41-.09.13-.17.26-.26.39-.1.16-.2.32-.29.48-.06.11-.12.23-.18.34-.09.18-.19.36-.27.55-.03.07-.06.14-.09.22-.15.36-.28.73-.39 1.1-.04.15-.09.3-.13.46-.04.15-.06.3-.09.45-.04.19-.07.38-.1.58-.02.13-.04.26-.05.39-.02.23-.04.46-.05.7 0 .11-.01.21-.01.32 0 .28.01.55.02.82.01.24.04.47.07.71.02.13.03.27.05.4.04.26.1.51.16.76.01.04.02.09.03.13.22.87.55 1.72 1 2.53.01.01.01.03.02.04.49.88 1.09 1.71 1.83 2.44l6.94 6.95c.4.41 1.06.41 1.47 0l6.94-6.95c2.12-2.12 3.25-4.94 3.18-7.93-.07-3.02-1.33-5.79-3.55-7.81zm-2.86 12.47c-1.23 1.23-2.84 1.84-4.45 1.84s-3.22-.61-4.45-1.84c-1.19-1.19-1.84-2.77-1.84-4.45s.65-3.26 1.84-4.45 2.77-1.84 4.45-1.84 3.26.65 4.45 1.84c2.46 2.45 2.46 6.44 0 8.9z" fill="#a279e5"/></svg>