<svg fill="none" height="100" viewBox="0 0 100 100" width="100" xmlns="http://www.w3.org/2000/svg"><path d="m84.3902 42.235c-.05-3.24-2.41-5.94-5.5-6.5-2.21-14.16-14.4-24.68-28.89-24.68-14.48 0-26.68 10.52-28.89 24.68-3.09.56-5.45 3.26-5.5 6.5-3.49.72-6.11997 3.82-6.11997 7.52v5.04c0 3.7 2.62997 6.8 6.11997 7.52.04 3.12 2.23 5.72 5.15 6.42v4.18c0 5.6 4.56 10.16 10.16 10.16h11.68c.79 3.36 3.81 5.87 7.4 5.87 4.2 0 7.61-3.41 7.61-7.61s-3.41-7.61-7.61-7.61c-3.73 0-6.83 2.69-7.48 6.24h-11.6c-3.88 0-7.04-3.16-7.04-7.04v-4.18c2.95-.71 5.15-3.36 5.15-6.52v-19.89c0-3.02-2.01-5.58-4.76-6.42 2.1-12.49 12.9-21.74 25.73-21.74s23.63 9.25 25.73 21.74c-2.75.84-4.76 3.4-4.76 6.42v19.89c0 3.7 3.01 6.71 6.71 6.71 3.67 0 6.65-2.96 6.71-6.61 3.49-.72 6.12-3.82 6.12-7.52v-5.04c0-3.71-2.63-6.81-6.12-7.53zm-34.39 34.61c2.48 0 4.49 2.02 4.49 4.49s-2.02 4.49-4.49 4.49-4.49-2.02-4.49-4.49 2.02-4.49 4.49-4.49zm-37.38-22.05v-5.04c0-1.96 1.25-3.62 3-4.26v13.57c-1.75-.65-3-2.31-3-4.27zm13.29-12.46v19.89c0 1.98-1.61 3.59-3.59 3.59s-3.59-1.61-3.59-3.59v-19.89c0-1.97 1.59-3.57 3.56-3.59.01 0 .02.01.03.01.06.01.12.01.17.01h.01c1.9.09 3.41 1.65 3.41 3.57zm55.37 19.88c0 1.98-1.61 3.59-3.59 3.59s-3.59-1.61-3.59-3.59v-19.88c0-1.98 1.61-3.59 3.59-3.59s3.59 1.61 3.59 3.59zm6.11-7.42c0 1.96-1.25 3.62-3 4.26v-13.57c1.74.64 3 2.3 3 4.26z" fill="#31374a"/><path d="m25.9105 42.335v19.89c0 1.98-1.61 3.59-3.59 3.59s-3.59-1.61-3.59-3.59v-19.89c0-1.97 1.59-3.57 3.56-3.59.01 0 .02.01.03.01.06.01.12.01.17.01h.01c1.9.09 3.41 1.65 3.41 3.57z" fill="#a279e5"/><path d="m81.2806 62.215c0 1.98-1.61 3.59-3.59 3.59s-3.59-1.61-3.59-3.59v-19.88c0-1.98 1.61-3.59 3.59-3.59s3.59 1.61 3.59 3.59z" fill="#a279e5"/><path d="m40.0104 21.575c-.66.55-.75 1.54-.2 2.2s1.53.75 2.2.2c4.88-4.08 12.07-3.76 16.74.72.3.29.6901.44 1.0801.44.4099 0 .8199-.16 1.1199-.48.6-.62.58-1.61-.04-2.2-5.81-5.61-14.8-5.98-20.9-.88z" fill="#31374a"/></svg>