<svg fill="none" height="100" viewBox="0 0 100 100" width="100" xmlns="http://www.w3.org/2000/svg"><path d="m74.1914 60.5263c-.18-.84-1.01-1.38-1.85-1.19-.84.18-1.38 1.01-1.19 1.85l1.1 5.08c.16.73.8 1.23 1.52 1.23.11 0 .22-.01.33-.04.84-.18 1.38-1.01 1.19-1.85z" fill="#31374a"/><path d="m27.8416 52.0363 8.06-1.25-3.1 7.82-4.35.8399c-.85.16-1.4.98-1.24 1.83.14.75.8 1.2601 1.53 1.2601.1 0 .2-.01.3-.03l5.19-1.01c.52-.1001.96-.46 1.15-.96l3.42-8.6201 5.01 6.4401c.31.4.77.5999 1.23.5999.34 0 .67-.11.96-.33.68-.53.8-1.5099.27-2.1899l-6.14-7.8801 2.87-7.23c.32-.8-.07-1.71-.88-2.03-.8-.32-1.71.0701-2.03.8801l-2.87 7.2299-9.88 1.5401c-.85.13-1.43.9299-1.3 1.7799.15.86.96 1.4301 1.8 1.3101z" fill="#31374a"/><path d="m79.4724 41.6263-3.55-5.76c-1.49.56-3.11.67-4.69.29-2.1-.5-3.87-1.78-5-3.61-2.05-3.33-1.38-7.59 1.39-10.15l-3.55-5.77c-1.61-2.62-5.06-3.44-7.68-1.82l-12.16 7.33 21.34 34.75 12.08-7.58c2.62-1.62 3.44-5.06 1.82-7.68z" fill="#a279e5"/><g fill="#31374a"><path d="m97.4322 66.3162-1.6701-7.7c-.09-.4-.33-.76-.68-.98s-.77-.3-1.18-.21c-1.29.28-2.6099.04-3.7199-.68-2.04-1.31-2.92-3.94-1.75-6.63.58-1.33 1.8799-2.11 3.32-2.35.43-.07.8099-.33 1.0499-.69.22-.35.3-.77.21-1.18l-1.67-7.7c-.47-2.16-1.62-4.15-3.4-5.46-2.04-1.5-4.56-2.03-7.0099-1.5l-3.9201.85c-.46.1-.91.25-1.34.46-1.04.49-2.69.82-3.73.57-1.28-.3-2.37-1.09-3.07-2.22-.69-1.12-.9099-2.45-.6-3.74.3001-1.27 1.07-2.34 2.17-3.04.75-.47 1.0201-1.42.5601-2.18l-4.29-6.97c-2.52-4.08-7.89-5.35996-11.98-2.84l-48.27005 29.78c-2.14 1.32-3.59 3.45-4.01 5.96-.37 2.17.18 4.41 1.34 6.29l4.13 6.7c.46.75 1.44.94 2.20005.48 2.32-1.39 5.33-.66 6.75 1.64.69 1.12.91 2.45.6 3.74s-1.09 2.37-2.22 3.07c-.35.22-.6.57-.7.97s-.03.83.19 1.18l4.29 6.96c1.41 2.29 3.71 3.68 6.18 4.04 1.1 3.7301 4.54 6.23 8.34 6.23.61 0 1.22-.06 1.84-.2l55.43-12c2.4499-.53 4.5299-2.06 5.7599-4.27 1.09-1.93 1.3201-4.22.8501-6.38zm-75.74 10.93-3.55-5.76c2.77-2.56 3.44-6.82 1.39-10.15s-6.15-4.64-9.69005-3.32l-3.55-5.76c-.78-1.27-1.02-2.77-.68-4.22s1.23-2.68 2.5-3.46l34.74005-21.42 1.91 3.1c.3.48.81.74 1.33.74.28 0 .56-.08.82-.23.73-.45.96-1.41.51-2.15l-1.91-3.1 10.87-6.72c2.62-1.62 6.07-.8 7.68 1.82l3.55 5.77c-2.77 2.56-3.4401 6.82-1.3901 10.15 1.13 1.83 2.91 3.12 5 3.61 1.58.37 3.2.27 4.69-.29l3.5501 5.76c1.61 2.62.8 6.07-1.82 7.68l-10.8801 6.71-1.9099-3.1c-.45-.73-1.41-.96-2.15-.51-.73.45-.9601 1.41-.51 2.15l1.91 3.1-34.73 21.42c-2.62 1.62-6.07.8-7.68-1.82zm68.4799-3.33-12.4899 2.7-.7701-3.56c-.18-.84-1.01-1.38-1.85-1.19-.8399.18-1.38 1.01-1.19 1.85l.7701 3.56-39.89 8.63c-2.61.56-5.2-.81-6.26-3.15.87-.21 1.73-.54 2.53-1.04l36.0599-22.23 12.2101-7.52c4.09-2.52 5.3599-7.89 2.8399-11.98l-3.16-5.13 2.63-.57c3.0101-.65 5.99 1.27 6.64 4.28l1.43 6.62c-3.4599 1.5-5.51 5.29-4.68 9.11.46 2.11 1.7001 3.91 3.5101 5.07 1.37.88 2.96 1.32 4.5199 1.28l1.43 6.62c.65 3.02-1.2699 5.99-4.28 6.65z"/><path d="m51.4721 37.1562c.3.48.81.74 1.33.74.28 0 .56-.08.82-.23.73-.45.96-1.41.51-2.15l-2.73-4.43c-.45-.73-1.41-.96-2.15-.51-.73.45-.96 1.41-.51 2.15z"/><path d="m58.2025 48.0663c.3.48.81.74 1.33.74.28 0 .56-.08.82-.23.73-.45.96-1.41.51-2.15l-2.73-4.43c-.45-.73-1.41-.96-2.15-.51-.73.45-.96 1.41-.51 2.15z"/></g></svg>