<svg fill="none" height="100" viewBox="0 0 100 100" width="100" xmlns="http://www.w3.org/2000/svg"><path d="m82.3049 29.1c1.49-2.07 2.17-4.63 1.86-7.25l-.21-1.62c-.21-1.84-1.63-3.27-3.48-3.5l-1.82-.22c-2.49-.3-4.96.32-6.98 1.68-6.4-4.38-13.87-6.69-21.69-6.69-5.48 0-10.69 1.16-15.42 3.23-.02.01-.03.02-.05.02-13.53 5.98-23.01 19.53-23.01 35.25 0 4.49.78 8.81 2.2 12.82 1.92 5.42 5.02 10.3 9 14.3-1.82 3.17-2.61 5.93-1.58 7.75.84 1.5 2.47 2.25 5.05 2.25 2.21 0 5.13-.56 8.84-1.66 4.12 1.75 8.62 2.79 13.32 2.99.02 0 .04.01.06.01h.08c.51.02 1.01.04 1.52.04 15.13 0 28.24-8.78 34.53-21.5.07-.1.12-.2.17-.32 0-.01 0-.01.01-.02 2.43-5.04 3.79-10.69 3.79-16.66 0-7.47-2.15-14.67-6.19-20.9zm-10.28-7.07c1.36-1.58 3.33-2.47 5.39-2.47.29 0 .58.02.88.05l1.82.22c.4.05.7.36.75.77l.21 1.63c.29 2.46-.67 4.86-2.58 6.42l-7.84 6.41-7.8 6.37c-.01 0-.01.01-.01.02l-13.36 10.91c-.13.1-.28.18-.46.25-.5.17-1.11.03-1.48-.34-.36-.36-.51-.87-.38-1.39.05-.21.15-.41.31-.59zm.34 15.65 4.34 14.78c.23.8.01 1.67-.59 2.28l-1.4 1.4-8.8-13.18 5.51-4.51zm-15.92 23.31-.26.26-4.46-6.69 2.62-2.14 2.28 7.87c.07.24 0 .51-.18.7zm-11.31-12.77c-.01.01-.01.01-.02.02l-6.85-4.84.3-.3c.18-.18.44-.25.68-.18l8.35 2.45zm12-13.83-12.51-8.34 1.4-1.4c.6-.6 1.48-.82 2.28-.59l14.23 4.13zm-42.51 15.61c0-13.96 8.13-26.05 19.9-31.8 1.06 1.74 2.54 5.44-1.25 8.83-1.36 1.22-2.76 2.18-4.1 3.11-4.54 3.14-8.83 6.1-6.26 16.17.53 2.07 1.48 7.26-1.06 10.84-1.22 1.72-3.12 2.81-5.66 3.25-1.02-3.28-1.57-6.78-1.57-10.4zm2.63 13.37c3.11-.65 5.52-2.12 7.14-4.41 2.31-3.27 2.87-8.16 1.53-13.41-2.04-7.97.62-9.8 5.01-12.83 1.36-.94 2.9-2 4.41-3.35 4.77-4.26 3.8-9.29 2.06-12.41 3.91-1.5 8.16-2.32 12.59-2.32 6.93 0 13.57 2 19.31 5.76l-4.52 5.2-15.63-4.53c-1.9-.54-3.95-.01-5.35 1.39l-2.75 2.75c-.33.33-.5.79-.45 1.26s.3.89.69 1.14l13.77 9.18-5.22 6.01-9.73-2.85c-1.34-.38-2.78-.01-3.76.97l-1.61 1.61c-.33.33-.49.78-.45 1.24s.28.88.65 1.14l9.04 6.39c0 .63.14 1.26.4 1.83-4.86 4.39-14.6 13.58-19.97 21.31-3.02-3.21-5.47-6.94-7.16-11.07zm6.59 19.97c-.43-.76.02-2.21 1.12-4.13 1.81 1.55 3.76 2.94 5.84 4.14-5.94 1.35-6.87.16-6.96-.01zm35.1.89c1.44-1.54 2.53-3.49 3.28-5.89.64-2.05.95-3.84 1.22-5.43.63-3.64.91-5.3 4.01-6.38 4.67-1.63 10.65-.31 13.53.51-4.64 8.4-12.57 14.72-22.04 17.19zm23.44-20.02c-2.97-.91-10.11-2.65-15.96-.61-4.84 1.69-5.41 4.98-6.06 8.79-.26 1.49-.55 3.18-1.12 5.03-1.08 3.47-3.29 7.51-10.85 7.92-8.3-.37-15.85-3.62-21.71-8.76 4.11-5.77 11.89-14.01 19.91-21.24.61.29 1.28.47 1.98.47.07 0 .15-.01.22-.02l5.85 8.78c.26.39.68.64 1.14.69.05.01.1.01.16.01.41 0 .81-.16 1.1-.45l1.61-1.6.01-.01c.98-.99 1.34-2.43.96-3.76l-2.65-9.15 6.52-5.33 9.68 14.51c.26.39.68.64 1.14.69.05.01.1.01.15.01.41 0 .81-.16 1.1-.46l2.75-2.75c1.41-1.41 1.94-3.46 1.38-5.36l-4.71-16.04 5.08-4.18c3.47 5.59 5.31 11.98 5.31 18.61 0 5.06-1.07 9.86-2.99 14.21z" fill="#31374a"/><g fill="#a279e5"><path d="m72.0253 22.03c1.36-1.58 3.33-2.47 5.39-2.47.29 0 .58.02.88.05l1.82.22c.4.05.7.36.75.77l.21 1.63c.29 2.46-.67 4.86-2.58 6.42l-7.84 6.41-7.8 6.37c-.01 0-.01.01-.01.02l-13.36 10.91c-.13.1-.28.18-.46.25-.5.17-1.11.03-1.48-.34-.36-.36-.51-.87-.38-1.39.05-.21.15-.41.31-.59z"/><path d="m72.365 37.68 4.34 14.78c.23.8.01 1.67-.59 2.28l-1.4 1.4-8.8-13.18 5.51-4.51z"/><path d="m56.4446 60.99-.26.26-4.46-6.69 2.62-2.14 2.28 7.87c.07.24 0 .51-.18.7z"/><path d="m45.1346 48.22c-.01.01-.01.01-.02.02l-6.85-4.84.3-.3c.18-.18.44-.25.68-.18l8.35 2.45z"/><path d="m57.135 34.39-12.51-8.34 1.4-1.4c.6-.6 1.48-.82 2.28-.59l14.23 4.13z"/></g></svg>