<svg fill="none" height="100" viewBox="0 0 100 100" width="100" xmlns="http://www.w3.org/2000/svg"><path d="m88.8759 31.56c-.58-11.41-10.24-20.36-21.99-20.36h-15.16c-11.8 0-21.46 8.97-22 20.43-.1 2.19.12 4.34.65 6.4-10.44 1.29-18.73 9.79-19.25 20.16-.4 7.89 3.47 15.22 10.14 19.35v7.99c0 1.36.82 2.56 2.09 3.05.39.15.79.22 1.18.22.9 0 1.78-.38 2.41-1.08l6.3-6.96h15.58c5.92 0 11.44-2.36 15.53-6.65 4.09-4.28 6.19-9.91 5.91-15.85 0-.09-.02-.18-.02-.27l2.8 3.09c.63.7 1.51 1.08 2.41 1.08.4 0 .8-.07 1.19-.22 1.27-.49 2.09-1.68 2.09-3.04v-7.99c6.67-4.13 10.53-11.46 10.14-19.35zm-26.77 40.4c-3.5 3.66-8.21 5.68-13.27 5.68h-16.27c-.44 0-.86.19-1.16.51l-6.77 7.47c-.03.03-.07.07-.16.04-.09-.04-.09-.09-.09-.13v-8.88c0-.56-.3-1.08-.8-1.36-6.12-3.44-9.7-9.93-9.35-16.94.46-9.07 7.91-16.48 17.18-17.3.01.01.01.03.02.04.59 1.37 1.32 2.67 2.19 3.9.06.09.12.18.18.26.26.35.53.7.81 1.04.1.12.2.24.31.36.24.27.45.55.7.82.75.78 1.55 1.47 2.39 2.13.03.02.06.04.08.06 2.43 1.88 5.2 3.2 8.17 3.88.06.01.12.03.19.05.33.07.67.13 1 .19.34.06.69.11 1.03.16.25.03.5.06.76.09.63.06 1.27.1 1.91.1h15.25c.42 1.4.67 2.83.74 4.28.25 5.08-1.54 9.89-5.04 13.55zm14.3-23.3c-.49.28-.8.8-.8 1.36v8.88c0 .04 0 .1-.09.13-.09.04-.13-.01-.16-.04l-6.77-7.47c-.3-.33-.72-.51-1.16-.51h-16.26c-.56 0-1.11-.03-1.65-.08-.23-.02-.47-.05-.7-.08-.28-.04-.56-.08-.84-.13-.31-.06-.63-.11-.93-.18-.12-.03-.23-.06-.34-.09-3.03-.77-5.8-2.3-8.06-4.41-.08-.07-.16-.15-.23-.22-.28-.28-.56-.56-.83-.85-.06-.06-.11-.13-.16-.19-.86-.98-1.63-2.05-2.28-3.21-.02-.03-.04-.06-.05-.09-.45-.81-.83-1.67-1.16-2.56-.01-.02-.02-.04-.03-.06-.79-2.23-1.16-4.61-1.05-7.06.46-9.79 8.76-17.45 18.88-17.45h15.15c10.09 0 18.38 7.64 18.88 17.39.34 6.99-3.24 13.48-9.36 16.92z" fill="#31374a"/><path d="m71.4858 20.88-30.84 8.81c-.58.17-1.02.66-1.11 1.25-.1.6.16 1.2.67 1.54l5 3.39.49 7.11c.04.58.4 1.09.93 1.32.2.09.42.13.63.13.35 0 .69-.12.97-.34l4.19-3.34 5.09 3.42c.35.23.77.32 1.18.23.41-.08.77-.32 1-.67l13.54-20.5c.36-.55.34-1.26-.04-1.78-.4-.52-1.07-.75-1.7-.57zm-13.55 19.82-4.74-3.18c-.26-.18-.57-.26-.87-.26-.34 0-.69.11-.97.34l-2.76 2.2-.34-4.91c-.03-.48-.28-.92-.68-1.18l-2.87-1.94 23.58-6.74z" fill="#31374a"/><path d="m57.9361 40.7-4.74-3.18c-.26-.18-.57-.26-.87-.26-.34 0-.69.11-.97.34l-2.76 2.2-.34-4.91c-.03-.48-.28-.92-.68-1.18l-2.87-1.94 23.58-6.74z" fill="#a279e5"/><g fill="#31374a"><path d="m53.9957 57.5h-26.59c-.86 0-1.56.7-1.56 1.56s.7 1.56 1.56 1.56h26.59c.86 0 1.56-.7 1.56-1.56s-.7-1.56-1.56-1.56z"/><path d="m42.8858 65.38h-15.11c-.86 0-1.56.7-1.56 1.56s.7 1.56 1.56 1.56h15.11c.86 0 1.56-.7 1.56-1.56 0-.87-.7-1.56-1.56-1.56z"/></g></svg>