<svg fill="none" height="100" viewBox="0 0 100 100" width="100" xmlns="http://www.w3.org/2000/svg"><g fill="#31374a"><path d="m25.7524 40.17c-.86 0-1.56.7-1.56 1.56v25.75c0 .86.7 1.56 1.56 1.56s1.56-.7 1.56-1.56v-25.75c0-.86-.69-1.56-1.56-1.56z"/><path d="m35.5219 40.17c-.86 0-1.56.7-1.56 1.56v25.75c0 .86.7 1.56 1.56 1.56s1.56-.7 1.56-1.56v-25.75c0-.86-.69-1.56-1.56-1.56z"/><path d="m45.2924 40.17c-.86 0-1.56.7-1.56 1.56v25.75c0 .86.7 1.56 1.56 1.56s1.56-.7 1.56-1.56v-25.75c0-.86-.7-1.56-1.56-1.56z"/><path d="m85.8723 43.13-10-8.24c-1.23-1.02-2.84-1.41-4.4-1.07l-7.4 1.6-8.15-6.12c-1.54-1.36-3.56-2.19-5.77-2.19h-3.3v-7.67h.66c2.24 0 4.07-1.83 4.07-4.07s-1.83-4.07-4.07-4.07h-23.97c-2.24 0-4.07 1.83-4.07 4.07s1.83 4.07 4.07 4.07h.66v7.67h-3.3c-4.83 0-8.75 3.93-8.75 8.75v39.18c0 4.33 3.17 7.93 7.31 8.62.65 2.88 3.23 5.04 6.31 5.04 3.03 0 5.57-2.09 6.27-4.91h6.99c.7 2.81 3.24 4.91 6.27 4.91 3.07 0 5.65-2.16 6.3-5.04 4.14-.69 7.31-4.29 7.31-8.62v-39.18c0-.15-.01-.29-.02-.44l3.27 2.45-.01 7.3c0 1.56.69 3.02 1.89 4.01l10.03 8.27c1.01.83 2.23 1.24 3.45 1.24 1.57 0 3.12-.67 4.19-1.97l4.91-5.95c1.89-2.31 1.56-5.74-.75-7.64zm-63.28-27.77c0-.52.43-.95.95-.95h23.97c.52 0 .95.43.95.95s-.43.95-.95.95h-2.22-19.54-2.22c-.52 0-.94-.43-.94-.95zm4.72 4.07h16.42v7.67h-16.42zm-1.56 66.15c-1.28 0-2.38-.73-2.95-1.79h5.89c-.55 1.06-1.65 1.79-2.94 1.79zm19.54 0c-1.28 0-2.38-.73-2.95-1.79h5.89c-.55 1.06-1.66 1.79-2.94 1.79zm10.49-10.54c0 3.11-2.53 5.63-5.63 5.63h-29.26c-3.11 0-5.63-2.53-5.63-5.63v-39.18c0-3.11 2.53-5.63 5.63-5.63h4.86 19.54 4.86c3.11 0 5.63 2.53 5.63 5.63zm28.42-26.26-4.91 5.95c-.81.98-2.26 1.12-3.25.31l-10.02-8.26c-.48-.4-.76-.98-.76-1.6l.01-6.83 6.86-1.48c.62-.13 1.27.02 1.76.43l10 8.24c.9801.8 1.12 2.26.31 3.24z"/></g><path d="m84.2027 48.78-4.91 5.95c-.81.98-2.26 1.12-3.25.31l-10.02-8.26c-.48-.4-.76-.98-.76-1.6l.01-6.83 6.86-1.48c.62-.13 1.27.02 1.76.43l10 8.24c.98.8 1.12 2.26.31 3.24z" fill="#a279e5"/></svg>