<svg fill="none" height="90" viewBox="0 0 110 90" width="110" xmlns="http://www.w3.org/2000/svg"><g fill="#f47f22"><circle cx="6.98055" cy="6.42367" r="6.42367"/><circle cx="26.2518" cy="6.42367" r="6.42367"/><circle cx="45.5228" cy="6.42367" r="6.42367"/><circle cx="64.7935" cy="6.42367" r="6.42367"/><circle cx="84.0643" cy="6.42367" r="6.42367"/><circle cx="103.336" cy="6.42367" r="6.42367"/><circle cx="6.98055" cy="25.6947" r="6.42367"/><circle cx="26.2518" cy="25.6947" r="6.42367"/><circle cx="45.5228" cy="25.6947" r="6.42367"/><circle cx="64.7935" cy="25.6947" r="6.42367"/><circle cx="84.0643" cy="25.6947" r="6.42367"/><circle cx="103.336" cy="25.6947" r="6.42367"/><circle cx="6.98055" cy="44.9657" r="6.42367"/><circle cx="26.2518" cy="44.9657" r="6.42367"/><circle cx="45.5228" cy="44.9657" r="6.42367"/><circle cx="64.7935" cy="44.9657" r="6.42367"/><circle cx="84.0643" cy="44.9657" r="6.42367"/><circle cx="103.336" cy="44.9657" r="6.42367"/><circle cx="6.98055" cy="64.2367" r="6.42367"/><circle cx="26.2518" cy="64.2367" r="6.42367"/><circle cx="45.5228" cy="64.2367" r="6.42367"/><circle cx="64.7935" cy="64.2367" r="6.42367"/><circle cx="84.0643" cy="64.2367" r="6.42367"/><circle cx="103.336" cy="64.2367" r="6.42367"/><circle cx="6.98055" cy="83.5077" r="6.42367"/><circle cx="26.2518" cy="83.5077" r="6.42367"/><circle cx="45.5228" cy="83.5077" r="6.42367"/><circle cx="64.7935" cy="83.5077" r="6.42367"/><circle cx="84.0643" cy="83.5077" r="6.42367"/><circle cx="103.336" cy="83.5077" r="6.42367"/></g></svg>